GIL06_fast3_ik
nRows=3
nColumns=375

# SIMM Motion File Header:
name GIL06_fast3_ik
datacolumns 375
datarows 3
otherdata 1
range 0.82500000 0.84167000
endheader
time	pelvis_tx	pelvis_ty	pelvis_tz	pelvis_tilt	pelvis_list	pelvis_rotation	hip_flexion_r	hip_adduction_r	hip_rotation_r	knee_angle_r	ankle_angle_r	hip_flexion_l	hip_adduction_l	hip_rotation_l	knee_angle_l	ankle_angle_l	lumbar_extension	lumbar_bending	lumbar_rotation	subtalar_angle_r	mtp_angle_r	subtalar_angle_l	mtp_angle_l	asis_r_px	asis_r_py	asis_r_pz	asis_l_px	asis_l_py	asis_l_pz	midasis_px	midasis_py	midasis_pz	psis_r_px	psis_r_py	psis_r_pz	psis_l_px	psis_l_py	psis_l_pz	hip_r_px	hip_r_py	hip_r_pz	hip_l_px	hip_l_py	hip_l_pz	midhip_px	midhip_py	midhip_pz	epicondLat_r_px	epicondLat_r_py	epicondLat_r_pz	epicondMed_r_px	epicondMed_r_py	epicondMed_r_pz	thighwand_r_px	thighwand_r_py	thighwand_r_pz	upperleg1_r_px	upperleg1_r_py	upperleg1_r_pz	upperleg2_r_px	upperleg2_r_py	upperleg2_r_pz	malleolusLat_r_px	malleolusLat_r_py	malleolusLat_r_pz	malleolusMedv_r_px	malleolusMedv_r_py	malleolusMedv_r_pz	shankwand_r_px	shankwand_r_py	shankwand_r_pz	lowerleg1_r_px	lowerleg1_r_py	lowerleg1_r_pz	knee_r_px	knee_r_py	knee_r_pz	ankle_r_px	ankle_r_py	ankle_r_pz	toe_r_px	toe_r_py	toe_r_pz	epicondLat_l_px	epicondLat_l_py	epicondLat_l_pz	epicondMed_l_px	epicondMed_l_py	epicondMed_l_pz	thighwand_l_px	thighwand_l_py	thighwand_l_pz	upperleg1_l_px	upperleg1_l_py	upperleg1_l_pz	upperleg2_l_px	upperleg2_l_py	upperleg2_l_pz	malleolusLat_l_px	malleolusLat_l_py	malleolusLat_l_pz	malleolusMedv_l_px	malleolusMedv_l_py	malleolusMedv_l_pz	shankwand_l_px	shankwand_l_py	shankwand_l_pz	lowerleg1_l_px	lowerleg1_l_py	lowerleg1_l_pz	knee_l_px	knee_l_py	knee_l_pz	ankle_l_px	ankle_l_py	ankle_l_pz	toe_l_px	toe_l_py	toe_l_pz	subclavicle_r_px	subclavicle_r_py	subclavicle_r_pz	subclavicle_l_px	subclavicle_l_py	subclavicle_l_pz	neck_px	neck_py	neck_pz	sternalnotch_px	sternalnotch_py	sternalnotch_pz	xyphoidprocess_px	xyphoidprocess_py	xyphoidprocess_pz	midhip_tx	midhip_ty	midhip_tz	hip_r_tx	hip_r_ty	hip_r_tz	hip_l_tx	hip_l_ty	hip_l_tz	knee_r_tx	knee_r_ty	knee_r_tz	knee_l_tx	knee_l_ty	knee_l_tz	ankle_r_tx	ankle_r_ty	ankle_r_tz	ankle_l_tx	ankle_l_ty	ankle_l_tz	midasis_tx	midasis_ty	midasis_tz	asis_r_tx	asis_r_ty	asis_r_tz	asis_l_tx	asis_l_ty	asis_l_tz	psis_r_tx	psis_r_ty	psis_r_tz	psis_l_tx	psis_l_ty	psis_l_tz	epicondLat_r_tx	epicondLat_r_ty	epicondLat_r_tz	epicondLat_l_tx	epicondLat_l_ty	epicondLat_l_tz	epicondMed_r_tx	epicondMed_r_ty	epicondMed_r_tz	epicondMed_l_tx	epicondMed_l_ty	epicondMed_l_tz	malleolusLat_r_tx	malleolusLat_r_ty	malleolusLat_r_tz	malleolusLat_l_tx	malleolusLat_l_ty	malleolusLat_l_tz	malleolusMedv_r_tx	malleolusMedv_r_ty	malleolusMedv_r_tz	malleolusMedv_l_tx	malleolusMedv_l_ty	malleolusMedv_l_tz	neck_tx	neck_ty	neck_tz	subclavicle_r_tx	subclavicle_r_ty	subclavicle_r_tz	subclavicle_l_tx	subclavicle_l_ty	subclavicle_l_tz	sternalnotch_tx	sternalnotch_ty	sternalnotch_tz	xyphoidprocess_tx	xyphoidprocess_ty	xyphoidprocess_tz	thighwand_r_tx	thighwand_r_ty	thighwand_r_tz	thighwand_l_tx	thighwand_l_ty	thighwand_l_tz	upperleg1_r_tx	upperleg1_r_ty	upperleg1_r_tz	upperleg1_l_tx	upperleg1_l_ty	upperleg1_l_tz	upperleg2_r_tx	upperleg2_r_ty	upperleg2_r_tz	upperleg2_l_tx	upperleg2_l_ty	upperleg2_l_tz	shankwand_r_tx	shankwand_r_ty	shankwand_r_tz	shankwand_l_tx	shankwand_l_ty	shankwand_l_tz	lowerleg1_r_tx	lowerleg1_r_ty	lowerleg1_r_tz	lowerleg1_l_tx	lowerleg1_l_ty	lowerleg1_l_tz	toe_r_tx	toe_r_ty	toe_r_tz	toe_l_tx	toe_l_ty	toe_l_tz	ground_force_vx	ground_force_vy	ground_force_vz	ground_force_px	ground_force_py	ground_force_pz	ground_force_vx	ground_force_vy	ground_force_vz	ground_force_px	ground_force_py	ground_force_pz	ground_torque_x	ground_torque_y	ground_torque_z	ground_torque_x	ground_torque_y	ground_torque_z	ground_marker_px	ground_marker_py	ground_marker_pz	ground_marker_px	ground_marker_py	ground_marker_pz	ground_marker_px	ground_marker_py	ground_marker_pz	ground_marker_px	ground_marker_py	ground_marker_pz	ground_marker_px	ground_marker_py	ground_marker_pz	ground_marker_px	ground_marker_py	ground_marker_pz	ground_marker_px	ground_marker_py	ground_marker_pz	ground_marker_px	ground_marker_py	ground_marker_pz	ground_marker_px	ground_marker_py	ground_marker_pz	ground_marker_px	ground_marker_py	ground_marker_pz	ground_marker_px	ground_marker_py	ground_marker_pz	ground_marker_px	ground_marker_py	ground_marker_pz	ground_marker_px	ground_marker_py	ground_marker_pz	ground_marker_px	ground_marker_py	ground_marker_pz	ground_marker_px	ground_marker_py	ground_marker_pz	ground_marker_px	ground_marker_py	ground_marker_pz	ground_marker_px	ground_marker_py	ground_marker_pz	ground_marker_px	ground_marker_py	ground_marker_pz	ground_marker_px	ground_marker_py	ground_marker_pz	ground_marker_px	ground_marker_py	ground_marker_pz	ground_marker_px	ground_marker_py	ground_marker_pz	ground_marker_px	ground_marker_py	ground_marker_pz	ground_marker_px	ground_marker_py	ground_marker_pz	ground_marker_px	ground_marker_py	ground_marker_pz	ground_marker_px	ground_marker_py	ground_marker_pz	ground_marker_px	ground_marker_py	ground_marker_pz	ground_marker_px	ground_marker_py	ground_marker_pz	ground_marker_px	ground_marker_py	ground_marker_pz	ground_marker_px	ground_marker_py	ground_marker_pz	ground_marker_px	ground_marker_py	ground_marker_pz	ground_marker_px	ground_marker_py	ground_marker_pz	ground_marker_px	ground_marker_py	ground_marker_pz	ground_marker_px	ground_marker_py	ground_marker_pz	ground_marker_px	ground_marker_py	ground_marker_pz	ground_marker_px	ground_marker_py	ground_marker_pz	ground_marker_px	ground_marker_py	ground_marker_pz	ground_marker_px	ground_marker_py	ground_marker_pz
      0.82500000	      1.01095575	      0.84199345	     -0.22385110	     -2.10082348	     -2.09649515	     -2.30149966	      1.33075839	      6.86955850	      2.03199712	    -10.43829299	      5.63311782	     29.63040410	     -5.35967199	      0.18387376	    -54.94209463	      5.40875236	      4.26108754	     -1.12773557	     14.48025054	      0.00000000	      0.00000000	      0.00000000	      0.00000000	      1.06313420	      0.83301923	     -0.10428609	      1.07129493	      0.82286301	     -0.34986137	      1.02438564	      0.84152058	     -0.22331137	      0.82980846	      0.92459217	     -0.20511980	      0.82735045	      0.92079627	     -0.26017837	      0.93769704	      0.78401608	     -0.14415815	      0.94392020	      0.77791972	     -0.30434937	      0.94080862	      0.78096790	     -0.22425376	      0.93488448	      0.39643365	     -0.11646700	      0.91615631	      0.41767121	     -0.25879626	      1.09414782	      0.54935924	     -0.10501417	      1.05566171	      0.57367447	     -0.12266949	      1.02795947	      0.50217588	     -0.13609906	      0.84989777	      0.04809705	     -0.15805579	      0.86780172	      0.05816411	     -0.23199618	      0.96790515	      0.17742355	     -0.16583148	      0.92431788	      0.19260570	     -0.17803706	      0.93171064	      0.41810468	     -0.17435148	      0.86182652	      0.05769077	     -0.20439077	      0.96737515	      0.02229357	     -0.18453726	      1.11337556	      0.44518681	     -0.38732303	      1.12263904	      0.42737476	     -0.24007075	      1.19201457	      0.68442232	     -0.32732144	      1.14269051	      0.67661327	     -0.33243478	      1.16034523	      0.60487234	     -0.33251382	      0.92543412	      0.12294359	     -0.37635792	      0.95100029	      0.12506474	     -0.30062874	      0.96156666	      0.23263751	     -0.43588059	      0.97236040	      0.23805353	     -0.38850432	      1.12041802	      0.44830759	     -0.31994256	      0.95129342	      0.12141375	     -0.33482982	      1.03221772	      0.06570428	     -0.36112860	      0.96876944	      1.28199208	     -0.21236689	      0.95977482	      1.28100441	     -0.29379618	      0.82462809	      1.32155450	     -0.23595330	      0.94764981	      1.27266247	     -0.26338730	      1.01305658	      1.21094009	     -0.26865878	      0.93646900	      0.77399200	     -0.23522700	      0.91404800	      0.77892600	     -0.15700800	      0.91968800	      0.77475500	     -0.31247900	      0.91671300	      0.41627200	     -0.19043100	      1.10675600	      0.42909300	     -0.33937100	      0.85502700	      0.06147600	     -0.20417900	      0.94779100	      0.10820100	     -0.30643400	      1.04108500	      0.85492600	     -0.23233300	      1.03664000	      0.85821400	     -0.10977400	      1.04553100	      0.85163700	     -0.35489200	      0.79490600	      0.91583700	     -0.21316100	      0.79488600	      0.91208800	     -0.26600400	      0.91670300	      0.40971000	     -0.11923200	      1.10638800	      0.43444100	     -0.41067000	      0.90033100	      0.43352200	     -0.27278900	      1.12048100	      0.41516400	     -0.24666700	      0.84615200	      0.06156800	     -0.16671600	      0.93291500	      0.11183300	     -0.34284500	      0.86547300	      0.06606700	     -0.23956000	      0.95131800	      0.12716700	     -0.26678200	      0.83263300	      1.34574300	     -0.23927100	      0.96081200	      1.28088600	     -0.20859300	      0.96073900	      1.28500600	     -0.29212200	      0.94380200	      1.27726900	     -0.26267400	      0.99744900	      1.20525100	     -0.26520200	      1.06909300	      0.55278100	     -0.09764100	      1.18238000	      0.67407200	     -0.32553600	      1.03308200	      0.57849000	     -0.11806300	      1.13623300	      0.66563200	     -0.33642300	      1.00334100	      0.50787200	     -0.13710200	      1.15814400	      0.59518600	     -0.33419200	      0.96048100	      0.19061100	     -0.17265700	      0.97496700	      0.20162000	     -0.41992000	      0.91389400	      0.19998500	     -0.18693700	      0.98256900	      0.21697900	     -0.37379600	      0.95900700	      0.04258400	     -0.19847000	      1.03323900	      0.06585700	     -0.32197300	     -8.96985892	    646.38614333	    -17.78697346	      0.93045874	      0.00000000	     -0.19646590	      0.00000000	      0.00000000	      0.00000000	      0.36114635	      0.00000000	     -0.29367966	      0.00000000	      4.14188379	      0.00000000	      0.00000000	      0.00000000	      0.00000000	      0.93646872	      0.77399194	     -0.23522726	      0.91404778	      0.77892631	     -0.15700833	      0.91968757	      0.77475464	     -0.31247926	      0.91671330	      0.41627172	     -0.19043069	      1.10675597	      0.42909271	     -0.33937138	      0.85502672	      0.06147639	     -0.20417927	      0.94779140	      0.10820125	     -0.30643374	      1.04108548	      0.85492563	     -0.23233300	      1.03663969	      0.85821426	     -0.10977376	      1.04553139	      0.85163701	     -0.35489225	      0.79490596	      0.91583729	     -0.21316071	      0.79488564	      0.91208762	     -0.26600429	      0.91670269	      0.40970999	     -0.11923242	      1.10638833	      0.43444067	     -0.41067013	      0.90033096	      0.43352175	     -0.27278927	      1.12048054	      0.41516358	     -0.24666709	      0.84615248	      0.06156759	     -0.16671610	      0.93291539	      0.11183318	     -0.34284481	      0.86547333	      0.06606676	     -0.23955962	      0.95131803	      0.12716667	     -0.26678154	      0.83263320	      1.34574282	     -0.23927106	      0.96081191	      1.28088641	     -0.20859301	      0.96073854	      1.28500569	     -0.29212162	      0.94380182	      1.27726948	     -0.26267394	      0.99744946	      1.20525098	     -0.26520154	      1.06909251	      0.55278093	     -0.09764139	      1.18238032	      0.67407244	     -0.32553604	      1.03308177	      0.57849032	     -0.11806261	      1.13623261	      0.66563159	     -0.33642328	      1.00334084	      0.50787193	     -0.13710156	      1.15814400	      0.59518623	     -0.33419162	      0.96048129	      0.19061060	     -0.17265716	      0.97496730	      0.20161986	     -0.41992024	      0.91389412	      0.19998510	     -0.18693715	      0.98256928	      0.21697907	     -0.37379581	      0.95900732	      0.04258410	     -0.19847004	      1.03323889	      0.06585659	     -0.32197332
      0.83333000	      1.02174810	      0.84141059	     -0.22337442	     -2.23368157	     -1.86084641	     -2.58077611	      0.48203016	      6.59463757	      1.69781604	    -10.07418701	      6.09678891	     30.29663549	     -4.87848066	      0.58639054	    -52.01418758	      5.91847370	      4.39328616	     -1.36203688	     14.62009005	      0.00000000	      0.00000000	      0.00000000	      0.00000000	      1.07330544	      0.83185502	     -0.10358523	      1.08267896	      0.82264398	     -0.34915448	      1.03517407	      0.84090660	     -0.22276916	      0.84068616	      0.92432640	     -0.20522801	      0.83849687	      0.92075168	     -0.26031272	      0.94796571	      0.78327965	     -0.14427871	      0.95498111	      0.77779790	     -0.30445939	      0.95147341	      0.78053878	     -0.22436905	      0.93801160	      0.39581957	     -0.11652172	      0.92126549	      0.41731905	     -0.25905851	      1.09980598	      0.54592065	     -0.10331328	      1.06195572	      0.57090214	     -0.12140760	      1.03315088	      0.49989661	     -0.13513031	      0.84963786	      0.04849510	     -0.15897995	      0.86852479	      0.05832308	     -0.23270764	      0.96918137	      0.17647774	     -0.16540974	      0.92591521	      0.19214483	     -0.17813398	      0.93580956	      0.41754780	     -0.17444240	      0.86221960	      0.05793078	     -0.20517446	      0.96736236	      0.02219786	     -0.18382514	      1.12863557	      0.44655729	     -0.38467615	      1.13588865	      0.42892161	     -0.23728995	      1.20422044	      0.68653073	     -0.32370410	      1.15504954	      0.67827332	     -0.32953743	      1.17335001	      0.60669473	     -0.32930209	      0.96002121	      0.11374295	     -0.37643401	      0.98411532	      0.11742998	     -0.30028339	      0.99051644	      0.22538127	     -0.43549494	      1.00015396	      0.23145727	     -0.38794970	      1.13412964	      0.45025323	     -0.31718681	      0.98521184	      0.11378755	     -0.33446906	      1.07019785	      0.06380290	     -0.35942551	      0.97977849	      1.28163563	     -0.21202501	      0.97100079	      1.28062147	     -0.29347765	      0.83570665	      1.32121215	     -0.23600909	      0.95879348	      1.27229181	     -0.26309835	      1.02420451	      1.21055755	     -0.26817436	      0.94707300	      0.77322800	     -0.23581300	      0.92424200	      0.77800600	     -0.15770200	      0.93068100	      0.77440300	     -0.31315600	      0.92095000	      0.41581600	     -0.19096500	      1.12116200	      0.43081900	     -0.33724100	      0.85547800	      0.06170500	     -0.20470100	      0.98156500	      0.10133900	     -0.30531700	      1.05181500	      0.85403900	     -0.23208200	      1.04674500	      0.85687600	     -0.10970100	      1.05688400	      0.85120200	     -0.35446300	      0.80568900	      0.91547400	     -0.21379200	      0.80576000	      0.91171500	     -0.26673200	      0.92001500	      0.40928600	     -0.11977000	      1.12178500	      0.43616300	     -0.40853900	      0.90610800	      0.43209000	     -0.27444400	      1.12719900	      0.41885600	     -0.24379000	      0.84651900	      0.06190900	     -0.16725800	      0.96626100	      0.10430700	     -0.34161100	      0.86662200	      0.06578800	     -0.23997000	      0.98443900	      0.12005000	     -0.26554800	      0.84392000	      1.34531700	     -0.23925300	      0.97154400	      1.28061500	     -0.20836800	      0.97192400	      1.28438300	     -0.29203400	      0.95481900	      1.27685400	     -0.26264700	      1.00838600	      1.20469400	     -0.26451700	      1.07440800	      0.54996600	     -0.09657300	      1.19392500	      0.67636500	     -0.32234400	      1.03882600	      0.57575400	     -0.11807000	      1.14858300	      0.66877100	     -0.33547100	      1.00783100	      0.50508500	     -0.13735400	      1.17038400	      0.59714200	     -0.33121600	      0.96205100	      0.18979500	     -0.17305700	      1.00250100	      0.19689700	     -0.41845600	      0.91592500	      0.19972300	     -0.18784100	      1.00945600	      0.21196300	     -0.37227400	      0.95909400	      0.04257400	     -0.19857200	      1.06962800	      0.06488000	     -0.32187700	     -6.01754853	    650.86363080	    -16.48626780	      0.93533765	      0.00000000	     -0.19720715	      0.00000000	      0.00000000	      0.00000000	      0.36454813	      0.00000000	     -0.29258401	      0.00000000	      4.67043164	      0.00000000	      0.00000000	      0.00000000	      0.00000000	      0.94707274	      0.77322829	     -0.23581316	      0.92424172	      0.77800643	     -0.15770203	      0.93068099	      0.77440268	     -0.31315610	      0.92095029	      0.41581583	     -0.19096547	      1.12116158	      0.43081933	     -0.33724126	      0.85547841	      0.06170471	     -0.20470086	      0.98156452	      0.10133948	     -0.30531701	      1.05181456	      0.85403937	     -0.23208241	      1.04674518	      0.85687643	     -0.10970142	      1.05688393	      0.85120231	     -0.35446340	      0.80568880	      0.91547382	     -0.21379235	      0.80576038	      0.91171539	     -0.26673165	      0.92001516	      0.40928578	     -0.11977042	      1.12178493	      0.43616286	     -0.40853861	      0.90610832	      0.43209049	     -0.27444375	      1.12719941	      0.41885644	     -0.24378958	      0.84651947	      0.06190879	     -0.16725828	      0.96626109	      0.10430675	     -0.34161097	      0.86662155	      0.06578848	     -0.23996982	      0.98443896	      0.12004980	     -0.26554850	      0.84392041	      1.34531689	     -0.23925257	      0.97154379	      1.28061509	     -0.20836805	      0.97192365	      1.28438282	     -0.29203397	      0.95481926	      1.27685368	     -0.26264712	      1.00838578	      1.20469439	     -0.26451656	      1.07440805	      0.54996562	     -0.09657290	      1.19392538	      0.67636520	     -0.32234374	      1.03882623	      0.57575423	     -0.11806989	      1.14858294	      0.66877073	     -0.33547139	      1.00783134	      0.50508463	     -0.13735360	      1.17038357	      0.59714204	     -0.33121607	      0.96205062	      0.18979506	     -0.17305665	      1.00250125	      0.19689666	     -0.41845629	      0.91592509	      0.19972332	     -0.18784073	      1.00945592	      0.21196286	     -0.37227377	      0.95909446	      0.04257426	     -0.19857194	      1.06962800	      0.06488050	     -0.32187656
      0.84167000	      1.03248960	      0.84061345	     -0.22302257	     -2.41280586	     -1.63001950	     -2.90084702	     -0.27066620	      6.30497966	      1.38200986	     -9.80745013	      6.58640749	     30.89757622	     -4.42927676	      1.01962636	    -48.88255982	      6.24892085	      4.61452517	     -1.57631868	     15.08413384	      0.00000000	      0.00000000	      0.00000000	      0.00000000	      1.08332917	      0.83045095	     -0.10297683	      1.09408690	      0.82214304	     -0.34852155	      1.04591032	      0.84006733	     -0.22234222	      0.85157133	      0.92399672	     -0.20559960	      0.84968818	      0.92063734	     -0.26070917	      0.95808290	      0.78240228	     -0.14457333	      0.96600272	      0.77750694	     -0.30473085	      0.96204281	      0.77995461	     -0.22465209	      0.94131585	      0.39518898	     -0.11665239	      0.92656744	      0.41683566	     -0.25938747	      1.10544232	      0.54256959	     -0.10169662	      1.06822614	      0.56816532	     -0.12024216	      1.03839393	      0.49763996	     -0.13424319	      0.84927836	      0.04895576	     -0.15985316	      0.86915476	      0.05848030	     -0.23336023	      0.97043328	      0.17547371	     -0.16497544	      0.92751405	      0.19165126	     -0.17822500	      0.94009748	      0.41692135	     -0.17460971	      0.86251971	      0.05819201	     -0.20590338	      0.96721678	      0.02209900	     -0.18302425	      1.14324248	      0.44750964	     -0.38218270	      1.14829470	      0.42991638	     -0.23469959	      1.21615474	      0.68800850	     -0.32003756	      1.16714168	      0.67940342	     -0.32664534	      1.18594266	      0.60795622	     -0.32611794	      0.99513132	      0.10506632	     -0.37646021	      1.01755538	      0.11027261	     -0.29988937	      1.01976481	      0.21834016	     -0.43514150	      1.02813824	      0.22502434	     -0.38743871	      1.14706028	      0.45170064	     -0.31461055	      1.01949944	      0.10668624	     -0.33404326	      1.10808829	      0.06254345	     -0.35743861	      0.99075623	      1.28116129	     -0.21216478	      0.98179034	      1.28011142	     -0.29359647	      0.84661952	      1.32069254	     -0.23583171	      0.96965541	      1.27179127	     -0.26318558	      1.03506974	      1.21007100	     -0.26838753	      0.95763400	      0.77234100	     -0.23649300	      0.93436000	      0.77700400	     -0.15850000	      0.94168800	      0.77390500	     -0.31392500	      0.92543800	      0.41529200	     -0.19144700	      1.13487300	      0.43209300	     -0.33514000	      0.85587600	      0.06198000	     -0.20519600	      1.01558900	      0.09501400	     -0.30430900	      1.06256700	      0.85293700	     -0.23188600	      1.05680000	      0.85537600	     -0.10956500	      1.06833400	      0.85049800	     -0.35420600	      0.81654300	      0.91510300	     -0.21459000	      0.81672700	      0.91131300	     -0.26765600	      0.92357800	      0.40885300	     -0.12026200	      1.13655300	      0.43746700	     -0.40641800	      0.91535200	      0.42753100	     -0.27370800	      1.14680300	      0.41836100	     -0.24118400	      0.84686000	      0.06229900	     -0.16776800	      0.99987800	      0.09726500	     -0.34048000	      0.86657200	      0.06633400	     -0.24058200	      1.01765500	      0.11339100	     -0.26437000	      0.85485300	      1.34466300	     -0.23916300	      0.98246200	      1.27971400	     -0.20884200	      0.98244000	      1.28351400	     -0.29142800	      0.96584700	      1.27626000	     -0.26258500	      1.01889000	      1.20375700	     -0.26470600	      1.07983300	      0.54729600	     -0.09549200	      1.20525100	      0.67798100	     -0.31907700	      1.04483200	      0.57354700	     -0.11803700	      1.15824300	      0.66899400	     -0.33194500	      1.01485000	      0.50409700	     -0.13603600	      1.18235300	      0.59866900	     -0.32842900	      0.96373100	      0.18895600	     -0.17346300	      1.02998300	      0.19236100	     -0.41704900	      0.91715000	      0.19977200	     -0.18823400	      1.03613000	      0.20682800	     -0.37077600	      0.95916900	      0.04256300	     -0.19863000	      1.10585400	      0.06446400	     -0.32172200	     -3.29580244	    654.15115663	    -16.37579374	      0.94038245	      0.00000000	     -0.19789235	      0.00000000	      0.00000000	      0.00000000	      0.36805600	      0.00000000	     -0.29135880	      0.00000000	      5.10625977	      0.00000000	      0.00000000	      0.00000000	      0.00000000	      0.95763421	      0.77234066	     -0.23649263	      0.93436027	      0.77700406	     -0.15849964	      0.94168806	      0.77390510	     -0.31392527	      0.92543781	      0.41529167	     -0.19144727	      1.13487279	      0.43209335	     -0.33513969	      0.85587627	      0.06198020	     -0.20519593	      1.01558912	      0.09501360	     -0.30430886	      1.06256700	      0.85293722	     -0.23188563	      1.05679989	      0.85537612	     -0.10956477	      1.06833398	      0.85049826	     -0.35420647	      0.81654269	      0.91510290	     -0.21458967	      0.81672668	      0.91131294	     -0.26765576	      0.92357844	      0.40885338	     -0.12026200	      1.13655329	      0.43746698	     -0.40641764	      0.91535157	      0.42753091	     -0.27370828	      1.14680278	      0.41836119	     -0.24118385	      0.84685975	      0.06229895	     -0.16776799	      0.99987793	      0.09726501	     -0.34047985	      0.86657172	      0.06633370	     -0.24058169	      1.01765513	      0.11339133	     -0.26437011	      0.85485291	      1.34466255	     -0.23916316	      0.98246217	      1.27971447	     -0.20884216	      0.98243976	      1.28351414	     -0.29142842	      0.96584719	      1.27626050	     -0.26258451	      1.01889002	      1.20375693	     -0.26470587	      1.07983315	      0.54729563	     -0.09549165	      1.20525086	      0.67798054	     -0.31907734	      1.04483151	      0.57354689	     -0.11803699	      1.15824330	      0.66899401	     -0.33194456	      1.01484990	      0.50409728	     -0.13603619	      1.18235326	      0.59866881	     -0.32842889	      0.96373105	      0.18895565	     -0.17346346	      1.02998316	      0.19236091	     -0.41704950	      0.91714972	      0.19977182	     -0.18823387	      1.03612959	      0.20682825	     -0.37077630	      0.95916861	      0.04256286	     -0.19863029	      1.10585356	      0.06446370	     -0.32172239
